<?xml version="1.0" encoding="UTF-8"?>
<svg id="Layer_2" data-name="Layer 2" xmlns="http://www.w3.org/2000/svg" viewBox="0 0 221.2 221">
  <defs>
    <style>
      .cls-1 {
        fill: #f26522;
      }

      .cls-2 {
        fill: #223771;
      }
    </style>
  </defs>
  <g id="Layer_1-2" data-name="Layer 1">
    <g>
      <path class="cls-2" d="M214.12,149.31c-19.86,23.8-49.71,38.95-83.12,38.95-59.84,0-108.32-48.49-108.32-108.32,0-18.22,4.51-35.36,12.46-50.44C13.53,49.75,0,78.49,0,110.37s13.96,61.59,36.2,81.86c19.72,17.88,45.89,28.77,74.59,28.77,1.94,0,3.87-.05,5.79-.15,.61-.03,1.2-.09,1.8-.14,1.19-.08,2.37-.16,3.55-.28,42.4-4.35,77.69-32.63,92.19-71.12"/>
      <path class="cls-2" d="M132.77,172.78c-3.54,1.96-7.2,3.75-10.96,5.34h.21c-.22,.07-.45,.16-.69,.25,3.33,.3,6.69,.47,10.11,.47,34.39,0,65.09-15.69,85.4-40.29,.23-.24,1.1-1.25,1.1-1.25,0,0,3.52-13.29,3.24-27.73,0-6.15-.53-12.17-1.49-18.05-.14-.82-.28-1.63-.43-2.44-.13-.69-.28-1.39-.43-2.08-4.73-22.06-16.03-41.67-31.75-56.71,4.64,12.54,7.19,26.07,7.19,40.21,0,44.33-24.93,82.83-61.51,102.28"/>
      <path class="cls-1" d="M110.77,17.3c30.81,0,58.18,14.74,75.45,37.54C175.9,23.01,146.03,0,110.77,0S45.63,23.01,35.31,54.83c17.28-22.8,44.64-37.54,75.46-37.54"/>
    </g>
  </g>
</svg>